<svg xmlns="http://www.w3.org/2000/svg" xmlns:xlink="http://www.w3.org/1999/xlink" xmlns:i="http://ns.adobe.com/AdobeIllustrator/10.0/" id="Layer_1" viewBox="0 0 310.1 81.2"><defs><style> .st0 { fill: url(#linear-gradient); } .st1 { fill: #fff; } </style><linearGradient id="linear-gradient" x1="15.5" y1="51.5" x2="39.7" y2="-1.4" gradientUnits="userSpaceOnUse"><stop offset="0" stop-color="#0052ff"></stop><stop offset="1" stop-color="#00c8ff"></stop></linearGradient></defs><path class="st0" d="M53.7,4.2L4.3,26c-2.9,1.3-2.6,5.5.4,6.4l19.6,5.6h0s13.7,3.9,13.7,3.9c.3,0,.2.5-.1.5l-11.6-1.7c-.6,0-1,.4-.9,1l4.5,15.9c.9,3,5.1,3.3,6.4.4l6.5-14.8h0l15.3-34.5c1.3-2.8-1.6-5.7-4.5-4.5Z"></path><g><polygon class="st1" points="95 39.8 77.4 14.6 77.3 14.5 72.7 14.5 72.7 49.4 77.7 49.4 77.7 24 95.3 49.2 95.4 49.4 99.9 49.4 99.9 14.5 95 14.5 95 39.8"></polygon><path class="st1" d="M126.3,43.7v-10.9c0-6-3.8-9.4-10.4-9.4s-10.3,3-10.9,8.1v.5c0,0,4.8,0,4.8,0v-.3c.5-2.4,2.7-3.8,6-3.8s5.8,1.7,5.8,4.7v1.3h-6.9c-6.7,0-10.4,2.9-10.4,8.2s3.8,7.7,9.6,7.7,6.1-1.2,8-3.5c.4,2.2,2,3.2,4.8,3.2h2.6v-4.5h-1.7c-.9,0-1.2-.2-1.2-1.2ZM121.5,38.1v.8c0,4.1-2.8,6.6-7.4,6.6s-5-1.4-5-3.7,1.7-3.7,5.1-3.7h7.3Z"></path><polygon class="st1" points="140.2 43.2 133 23.7 127.8 23.7 137.5 49.4 142.9 49.4 152.5 23.7 147.4 23.7 140.2 43.2"></polygon><rect class="st1" x="154.4" y="23.7" width="4.8" height="25.7"></rect><path class="st1" d="M156.9,14.4c-1.7,0-3,1.3-3,3s1.3,3,3,3,3-1.3,3-3-1.3-3-3-3Z"></path><path class="st1" d="M183.6,27.2c-1.8-2.5-4.6-3.8-8.2-3.8-7.3,0-12.4,5.4-12.4,13.1s4.9,13.1,12.4,13.1,6.2-1.2,8.1-3.6v1.5c0,5-2.5,7.4-7.6,7.4s-6.6-1.7-7.2-4.5v-.3h-5v.5c.7,5.5,5.1,8.8,11.9,8.8s12.8-3.9,12.8-11.7v-24.1h-4.3l-.4,3.5ZM183.5,36.7c0,5.1-3.2,8.6-7.8,8.6s-7.8-3.5-7.8-8.7,3.1-8.7,7.8-8.7,7.8,3.5,7.8,8.8Z"></path><path class="st1" d="M214.1,43.7v-10.9c0-6-3.8-9.4-10.4-9.4s-10.3,3-10.9,8.1v.5c0,0,4.8,0,4.8,0v-.3c.5-2.4,2.7-3.8,6-3.8s5.8,1.7,5.8,4.7v1.3h-6.9c-6.7,0-10.4,2.9-10.4,8.2s3.8,7.7,9.6,7.7,6.1-1.2,8-3.5c.4,2.2,2,3.2,4.8,3.2h2.6v-4.5h-1.7c-.9,0-1.2-.2-1.2-1.2ZM209.3,38.1v.8c0,4.1-2.8,6.6-7.4,6.6s-5-1.4-5-3.7,1.7-3.7,5.1-3.7h7.3Z"></path><path class="st1" d="M225.9,42.4v-14.2h6.4v-4.5h-6.4v-7h-4.8v7h-4.5v4.5h4.5v14.3c0,4.8,2.1,6.9,6.9,6.9h4.8v-4.5h-4.4c-1.9,0-2.4-.6-2.4-2.4Z"></path><path class="st1" d="M246,23.4c-7.2,0-12.2,5.4-12.2,13.1s5.1,13.1,12.8,13.1,10.2-3.6,11.2-9v-.5c0,0-4.8,0-4.8,0v.3c-.8,3-3.3,4.7-6.7,4.7s-7.2-3-7.4-7.5h19.3v-.4c0-.6.1-1.2.1-1.8-.2-7.5-4.9-12.2-12.2-12.2ZM239.2,33.6c.5-3.3,3.4-5.8,6.9-5.8s6.5,2.2,7,5.8h-13.9Z"></path><rect class="st1" x="262.6" y="14.5" width="5.1" height="34.9"></rect><path class="st1" d="M304.6,44.7c-1.2,0-1.9-.3-2.7-1.2,2.4-3.1,3.6-7.1,3.6-11.5,0-10.3-7-17.8-16.7-17.8s-16.7,7.5-16.7,17.8,7,17.8,16.7,17.8,6.9-1,9.6-2.9h0c1.3,1.9,2.9,2.6,5.5,2.6h3.5v-4.7h-3.1ZM289,35.5v4.7h3.3c1.1,0,1.8.4,2.6,1.5l.7.9c-1.9,1.4-4.2,2.2-6.7,2.2-6.8,0-11.5-5.4-11.5-13s4.7-13,11.5-13,11.5,5.4,11.5,13-.6,5.1-1.7,7.1l-.7-.9c-1.4-1.9-2.7-2.6-5.1-2.6h-4Z"></path></g><g><path class="st1" d="M80.8,76.7h-2l-3.3-4.8-1,.8v4h-1.7v-10.6h1.7v5.1c.2-.3.4-.5.6-.8s.4-.5.7-.8l3-3.5h2l-4,4.6,4.1,6Z"></path><path class="st1" d="M86.2,68.5c.9,0,1.6.2,2.1.7.5.5.8,1.2.8,2.2v5.2h-1.7v-4.9c0-.6-.1-1.1-.4-1.4-.3-.3-.7-.5-1.2-.5-.8,0-1.3.2-1.6.7-.3.5-.5,1.2-.5,2.1v4h-1.7v-8h1.3l.2,1.1h0c.2-.3.4-.5.6-.7s.5-.3.9-.4c.3,0,.7-.1,1-.1Z"></path><path class="st1" d="M98.6,72.7c0,.7,0,1.3-.3,1.8-.2.5-.4,1-.8,1.3-.3.4-.7.6-1.2.8-.5.2-1,.3-1.6.3s-1.1,0-1.5-.3c-.5-.2-.9-.5-1.2-.8-.3-.4-.6-.8-.8-1.3-.2-.5-.3-1.1-.3-1.8s.2-1.6.5-2.3c.3-.6.7-1.1,1.3-1.4.6-.3,1.2-.5,2-.5s1.4.2,2,.5c.6.3,1,.8,1.3,1.4.3.6.5,1.4.5,2.2ZM92.8,72.7c0,.6,0,1.1.2,1.5.1.4.4.7.7,1,.3.2.7.3,1.2.3s.9-.1,1.2-.3c.3-.2.5-.5.7-1s.2-.9.2-1.5,0-1.1-.2-1.5c-.1-.4-.4-.7-.7-.9-.3-.2-.7-.3-1.2-.3-.7,0-1.2.2-1.5.7s-.5,1.2-.5,2Z"></path><path class="st1" d="M107.1,76.7l-1-3.7c0-.2-.1-.4-.2-.7,0-.3-.1-.5-.2-.8,0-.3-.1-.5-.2-.8,0-.2,0-.4-.1-.6h0c0,.1,0,.3-.1.6,0,.2-.1.5-.2.8,0,.3-.1.6-.2.8,0,.3-.1.5-.2.7l-1.1,3.7h-1.9l-2.2-8h1.7l1,4c0,.3.1.6.2.9,0,.3.1.6.2.9,0,.3,0,.5.1.7h0c0-.1,0-.3,0-.5,0-.2,0-.4.1-.6,0-.2,0-.4.1-.6,0-.2,0-.4.1-.5l1.2-4.2h1.9l1.2,4.2c0,.2.1.4.2.7,0,.3.1.6.2.8,0,.3,0,.5,0,.7h0c0-.2,0-.4.1-.7,0-.3.1-.6.2-.9,0-.3.1-.6.2-.9l1.1-4h1.7l-2.3,8h-1.9Z"></path><path class="st1" d="M123.1,76.7l-1-3.7c0-.2-.1-.4-.2-.7,0-.3-.1-.5-.2-.8,0-.3-.1-.5-.2-.8,0-.2,0-.4-.1-.6h0c0,.1,0,.3-.1.6,0,.2-.1.5-.2.8,0,.3-.1.6-.2.8,0,.3-.1.5-.2.7l-1.1,3.7h-1.9l-2.2-8h1.7l1,4c0,.3.1.6.2.9,0,.3.1.6.2.9,0,.3,0,.5.1.7h0c0-.1,0-.3,0-.5,0-.2,0-.4.1-.6,0-.2,0-.4.1-.6,0-.2,0-.4.1-.5l1.2-4.2h1.9l1.2,4.2c0,.2.1.4.2.7,0,.3.1.6.2.8,0,.3,0,.5,0,.7h0c0-.2,0-.4.1-.7,0-.3.1-.6.2-.9,0-.3.1-.6.2-.9l1.1-4h1.7l-2.3,8h-1.9Z"></path><path class="st1" d="M130.3,65.4v2.8c0,.3,0,.6,0,.9,0,.3,0,.5,0,.7h0c.2-.3.4-.5.6-.7s.5-.3.8-.4c.3,0,.6-.1,1-.1.6,0,1.1.1,1.6.3s.8.5,1,1c.2.4.3,1,.3,1.7v5.2h-1.7v-4.9c0-.6-.1-1.1-.4-1.4-.3-.3-.7-.5-1.2-.5s-.9.1-1.2.3c-.3.2-.5.5-.6.9-.1.4-.2.9-.2,1.5v4h-1.7v-11.3h1.7Z"></path><path class="st1" d="M141.2,68.5c1,0,1.8.2,2.3.7s.8,1.2.8,2.1v5.4h-1.2l-.3-1.1h0c-.2.3-.5.5-.7.7-.2.2-.5.3-.8.4s-.7.1-1.2.1-.9,0-1.3-.3c-.4-.2-.7-.4-.9-.8-.2-.4-.3-.8-.3-1.4,0-.8.3-1.4.9-1.9s1.5-.6,2.8-.7h1.4v-.5c0-.6-.1-1-.4-1.2s-.6-.4-1.1-.4-.8,0-1.2.2c-.4.1-.7.3-1.1.4l-.6-1.2c.4-.2.8-.4,1.3-.5.5-.1,1-.2,1.6-.2ZM142.6,72.9h-1c-.9,0-1.4.2-1.8.5-.3.3-.5.6-.5,1.1s.1.7.4.9c.2.2.5.3.9.3.6,0,1.1-.2,1.5-.5.4-.3.6-.8.6-1.5v-.7Z"></path><path class="st1" d="M149.7,75.5c.2,0,.4,0,.7,0s.4,0,.6-.1v1.3c-.2,0-.4.2-.7.2-.3,0-.6,0-.9,0s-.9,0-1.2-.2c-.4-.2-.7-.4-.9-.8s-.3-.9-.3-1.5v-4.3h-1.1v-.8l1.2-.6.6-1.7h1.1v1.8h2.3v1.3h-2.3v4.3c0,.4.1.7.3.9s.5.3.8.3Z"></path><path class="st1" d="M153.9,66.1v.2c0,.4,0,.7-.2,1.1-.1.4-.3.8-.4,1.2-.2.4-.3.8-.5,1.1h-1.2c0-.3.1-.6.2-.9,0-.3.1-.6.2-1,0-.3.1-.6.2-.9,0-.3,0-.6.1-.8h1.7Z"></path><path class="st1" d="M160.8,74.4c0,.5-.1,1-.4,1.3-.3.4-.6.6-1.1.8-.5.2-1.1.3-1.8.3s-1,0-1.4-.1c-.4,0-.8-.2-1.1-.4v-1.5c.4.2.8.3,1.3.5.5.1.9.2,1.4.2s1,0,1.2-.3c.2-.2.4-.4.4-.7s0-.3-.1-.5-.3-.3-.6-.4c-.3-.1-.7-.3-1.2-.5-.5-.2-.9-.4-1.3-.6-.3-.2-.6-.4-.8-.7-.2-.3-.3-.7-.3-1.1,0-.7.3-1.3.8-1.6.6-.4,1.3-.6,2.2-.6s1,0,1.4.1.9.2,1.3.4l-.5,1.3c-.4-.2-.7-.3-1.1-.4s-.7-.2-1.1-.2-.8,0-1,.2c-.2.1-.3.3-.3.6s0,.3.2.5c.1.1.3.3.6.4.3.1.7.3,1.1.5.5.2.9.4,1.2.6.4.2.6.4.8.7.2.3.3.7.3,1.1Z"></path><path class="st1" d="M173.1,76.7l-1-3.7c0-.2-.1-.4-.2-.7,0-.3-.1-.5-.2-.8,0-.3-.1-.5-.2-.8,0-.2,0-.4-.1-.6h0c0,.1,0,.3-.1.6,0,.2-.1.5-.2.8,0,.3-.1.6-.2.8,0,.3-.1.5-.2.7l-1.1,3.7h-1.9l-2.2-8h1.7l1,4c0,.3.1.6.2.9,0,.3.1.6.2.9,0,.3,0,.5.1.7h0c0-.1,0-.3,0-.5,0-.2,0-.4.1-.6,0-.2,0-.4.1-.6,0-.2,0-.4.1-.5l1.2-4.2h1.9l1.2,4.2c0,.2.1.4.2.7,0,.3.1.6.2.8,0,.3,0,.5,0,.7h0c0-.2,0-.4.1-.7,0-.3.1-.6.2-.9,0-.3.1-.6.2-.9l1.1-4h1.7l-2.3,8h-1.9Z"></path><path class="st1" d="M185.7,72.7c0,.7,0,1.3-.3,1.8-.2.5-.4,1-.8,1.3-.3.4-.7.6-1.2.8-.5.2-1,.3-1.6.3s-1.1,0-1.5-.3c-.5-.2-.9-.5-1.2-.8-.3-.4-.6-.8-.8-1.3-.2-.5-.3-1.1-.3-1.8s.2-1.6.5-2.3c.3-.6.7-1.1,1.3-1.4.6-.3,1.2-.5,2-.5s1.4.2,2,.5c.6.3,1,.8,1.3,1.4.3.6.5,1.4.5,2.2ZM179.9,72.7c0,.6,0,1.1.2,1.5.1.4.4.7.7,1,.3.2.7.3,1.2.3s.9-.1,1.2-.3c.3-.2.5-.5.7-1s.2-.9.2-1.5,0-1.1-.2-1.5c-.1-.4-.4-.7-.7-.9-.3-.2-.7-.3-1.2-.3-.7,0-1.2.2-1.5.7s-.5,1.2-.5,2Z"></path><path class="st1" d="M191.7,68.5c.1,0,.3,0,.4,0,.2,0,.3,0,.4,0l-.2,1.6c-.1,0-.2,0-.4,0s-.3,0-.4,0c-.3,0-.6,0-.9.1s-.5.2-.7.4c-.2.2-.4.5-.5.8-.1.3-.2.6-.2,1v4.2h-1.7v-8h1.3l.2,1.4h0c.2-.3.4-.5.6-.8s.5-.4.8-.6c.3-.1.6-.2,1-.2Z"></path><path class="st1" d="M195.8,65.4v5.5c0,.2,0,.5,0,.8,0,.3,0,.6,0,.8h0c.1-.2.3-.4.5-.6s.3-.4.5-.6l2.5-2.6h2l-3.2,3.5,3.4,4.6h-2l-2.6-3.5-1,.8v2.7h-1.7v-11.3h1.7Z"></path><path class="st1" d="M203.4,65.6c.3,0,.5,0,.7.2s.3.4.3.7,0,.6-.3.7c-.2.1-.4.2-.7.2s-.5,0-.7-.2c-.2-.1-.3-.4-.3-.7s0-.6.3-.7c.2-.1.4-.2.7-.2ZM204.3,68.7v8h-1.7v-8h1.7Z"></path><path class="st1" d="M210.9,68.5c.9,0,1.6.2,2.1.7.5.5.8,1.2.8,2.2v5.2h-1.7v-4.9c0-.6-.1-1.1-.4-1.4-.3-.3-.7-.5-1.2-.5-.8,0-1.3.2-1.6.7-.3.5-.5,1.2-.5,2.1v4h-1.7v-8h1.3l.2,1.1h0c.2-.3.4-.5.6-.7s.5-.3.9-.4c.3,0,.7-.1,1-.1Z"></path><path class="st1" d="M218.5,80.3c-1.1,0-1.9-.2-2.5-.6-.6-.4-.9-.9-.9-1.6s.2-.9.5-1.3c.3-.3.8-.6,1.3-.7-.2,0-.4-.2-.6-.5-.2-.2-.2-.4-.2-.7s0-.6.3-.8c.2-.2.4-.4.8-.6-.4-.2-.8-.5-1-.9-.3-.4-.4-.9-.4-1.4s.1-1.1.4-1.5.6-.7,1.1-.9c.5-.2,1-.3,1.7-.3s.3,0,.5,0c.2,0,.3,0,.5,0,.1,0,.3,0,.3,0h2.8v.9l-1.4.3c.1.2.2.4.3.6,0,.2.1.5.1.8,0,.8-.3,1.5-.9,2-.6.5-1.4.7-2.4.7-.2,0-.5,0-.7,0-.2.1-.3.2-.4.4,0,.1-.1.3-.1.4s0,.2.1.3c0,0,.2.1.4.2.2,0,.4,0,.7,0h1.4c.9,0,1.6.2,2,.6s.7.9.7,1.6-.4,1.6-1.1,2.1c-.8.5-1.8.7-3.3.7ZM218.5,79.1c.6,0,1.1,0,1.5-.2.4-.1.7-.3.9-.5.2-.2.3-.5.3-.8s0-.5-.2-.6-.3-.2-.6-.3c-.3,0-.6,0-1,0h-1.3c-.3,0-.6,0-.8.1-.2,0-.4.2-.6.4-.1.2-.2.4-.2.7s.2.7.5.8c.3.2.8.3,1.4.3ZM218.8,72.8c.5,0,.9-.1,1.1-.4.2-.3.4-.7.4-1.2s-.1-.9-.4-1.2c-.2-.3-.6-.4-1.1-.4s-.8.1-1.1.4c-.2.3-.4.7-.4,1.2s.1.9.4,1.1.6.4,1.1.4Z"></path><path class="st1" d="M226.7,75v.2c0,.3,0,.7-.2,1.1-.1.4-.3.8-.4,1.2-.2.4-.3.8-.5,1.1h-1.2c.1-.4.2-.8.3-1.2,0-.4.2-.9.3-1.3,0-.4.1-.8.2-1.1h1.7Z"></path><path class="st1" d="M238,76.7l-1-3.7c0-.2-.1-.4-.2-.7,0-.3-.1-.5-.2-.8,0-.3-.1-.5-.2-.8,0-.2,0-.4-.1-.6h0c0,.1,0,.3-.1.6,0,.2-.1.5-.2.8,0,.3-.1.6-.2.8,0,.3-.1.5-.2.7l-1.1,3.7h-1.9l-2.2-8h1.7l1,4c0,.3.1.6.2.9,0,.3.1.6.2.9,0,.3,0,.5.1.7h0c0-.1,0-.3,0-.5,0-.2,0-.4.1-.6,0-.2,0-.4.1-.6,0-.2,0-.4.1-.5l1.2-4.2h1.9l1.2,4.2c0,.2.1.4.2.7,0,.3.1.6.2.8,0,.3,0,.5,0,.7h0c0-.2,0-.4.1-.7,0-.3.1-.6.2-.9,0-.3.1-.6.2-.9l1.1-4h1.7l-2.3,8h-1.9Z"></path><path class="st1" d="M245.2,65.4v2.8c0,.3,0,.6,0,.9,0,.3,0,.5,0,.7h0c.2-.3.4-.5.6-.7s.5-.3.8-.4c.3,0,.6-.1,1-.1.6,0,1.1.1,1.6.3s.8.5,1,1c.2.4.3,1,.3,1.7v5.2h-1.7v-4.9c0-.6-.1-1.1-.4-1.4-.3-.3-.7-.5-1.2-.5s-.9.1-1.2.3c-.3.2-.5.5-.6.9-.1.4-.2.9-.2,1.5v4h-1.7v-11.3h1.7Z"></path><path class="st1" d="M256.1,68.5c1,0,1.8.2,2.3.7s.8,1.2.8,2.1v5.4h-1.2l-.3-1.1h0c-.2.3-.5.5-.7.7-.2.2-.5.3-.8.4s-.7.1-1.2.1-.9,0-1.3-.3c-.4-.2-.7-.4-.9-.8-.2-.4-.3-.8-.3-1.4,0-.8.3-1.4.9-1.9s1.5-.6,2.8-.7h1.4v-.5c0-.6-.1-1-.4-1.2s-.6-.4-1.1-.4-.8,0-1.2.2c-.4.1-.7.3-1.1.4l-.6-1.2c.4-.2.8-.4,1.3-.5.5-.1,1-.2,1.6-.2ZM257.5,72.9h-1c-.9,0-1.4.2-1.8.5-.3.3-.5.6-.5,1.1s.1.7.4.9c.2.2.5.3.9.3.6,0,1.1-.2,1.5-.5.4-.3.6-.8.6-1.5v-.7Z"></path><path class="st1" d="M264.5,75.5c.2,0,.4,0,.7,0s.4,0,.6-.1v1.3c-.2,0-.4.2-.7.2-.3,0-.6,0-.9,0s-.9,0-1.2-.2c-.4-.2-.7-.4-.9-.8s-.3-.9-.3-1.5v-4.3h-1.1v-.8l1.2-.6.6-1.7h1.1v1.8h2.3v1.3h-2.3v4.3c0,.4.1.7.3.9s.5.3.8.3Z"></path><path class="st1" d="M268.8,66.1v.2c0,.4,0,.7-.2,1.1-.1.4-.3.8-.4,1.2-.2.4-.3.8-.5,1.1h-1.2c0-.3.1-.6.2-.9,0-.3.1-.6.2-1,0-.3.1-.6.2-.9,0-.3,0-.6.1-.8h1.7Z"></path><path class="st1" d="M275.7,74.4c0,.5-.1,1-.4,1.3-.3.4-.6.6-1.1.8-.5.2-1.1.3-1.8.3s-1,0-1.4-.1c-.4,0-.8-.2-1.1-.4v-1.5c.4.2.8.3,1.3.5.5.1.9.2,1.4.2s1,0,1.2-.3c.2-.2.4-.4.4-.7s0-.3-.1-.5-.3-.3-.6-.4c-.3-.1-.7-.3-1.2-.5-.5-.2-.9-.4-1.3-.6-.3-.2-.6-.4-.8-.7-.2-.3-.3-.7-.3-1.1,0-.7.3-1.3.8-1.6.6-.4,1.3-.6,2.2-.6s1,0,1.4.1.9.2,1.3.4l-.5,1.3c-.4-.2-.7-.3-1.1-.4s-.7-.2-1.1-.2-.8,0-1,.2c-.2.1-.3.3-.3.6s0,.3.2.5c.1.1.3.3.6.4.3.1.7.3,1.1.5.5.2.9.4,1.2.6.4.2.6.4.8.7.2.3.3.7.3,1.1Z"></path><path class="st1" d="M285.6,68.5c.9,0,1.6.2,2.1.7.5.5.8,1.2.8,2.2v5.2h-1.7v-4.9c0-.6-.1-1.1-.4-1.4-.3-.3-.7-.5-1.2-.5-.8,0-1.3.2-1.6.7-.3.5-.5,1.2-.5,2.1v4h-1.7v-8h1.3l.2,1.1h0c.2-.3.4-.5.6-.7s.5-.3.9-.4c.3,0,.7-.1,1-.1Z"></path><path class="st1" d="M297.9,72.7c0,.7,0,1.3-.3,1.8-.2.5-.4,1-.8,1.3-.3.4-.7.6-1.2.8-.5.2-1,.3-1.6.3s-1.1,0-1.5-.3c-.5-.2-.9-.5-1.2-.8-.3-.4-.6-.8-.8-1.3-.2-.5-.3-1.1-.3-1.8s.2-1.6.5-2.3c.3-.6.7-1.1,1.3-1.4.6-.3,1.2-.5,2-.5s1.4.2,2,.5c.6.3,1,.8,1.3,1.4.3.6.5,1.4.5,2.2ZM292.1,72.7c0,.6,0,1.1.2,1.5.1.4.4.7.7,1,.3.2.7.3,1.2.3s.9-.1,1.2-.3c.3-.2.5-.5.7-1s.2-.9.2-1.5,0-1.1-.2-1.5c-.1-.4-.4-.7-.7-.9-.3-.2-.7-.3-1.2-.3-.7,0-1.2.2-1.5.7s-.5,1.2-.5,2Z"></path><path class="st1" d="M302.9,75.5c.2,0,.4,0,.7,0s.4,0,.6-.1v1.3c-.2,0-.4.2-.7.2-.3,0-.6,0-.9,0s-.9,0-1.2-.2c-.4-.2-.7-.4-.9-.8s-.3-.9-.3-1.5v-4.3h-1.1v-.8l1.2-.6.6-1.7h1.1v1.8h2.3v1.3h-2.3v4.3c0,.4.1.7.3.9s.5.3.8.3Z"></path><path class="st1" d="M305.5,75.8c0-.4.1-.7.3-.8s.5-.2.8-.2.5,0,.8.2.3.4.3.8-.1.7-.3.8c-.2.2-.5.3-.8.3s-.5,0-.8-.3c-.2-.2-.3-.5-.3-.8Z"></path></g><metadata></metadata></svg>